<?xml version="1.0" encoding="utf-8"?>
<!-- Generator: Adobe Illustrator 16.0.0, SVG Export Plug-In . SVG Version: 6.00 Build 0)  -->
<!DOCTYPE svg PUBLIC "-//W3C//DTD SVG 1.1//EN" "http://www.w3.org/Graphics/SVG/1.1/DTD/svg11.dtd">
<svg version="1.1" id="Layer_1" xmlns="http://www.w3.org/2000/svg" xmlns:xlink="http://www.w3.org/1999/xlink" x="0px" y="0px"
	 width="92.188px" height="166px" viewBox="0 0 92.188 166" style="enable-background:new 0 0 92.188 166;" xml:space="preserve">
<g>
	<g>
		<g>
			<g>
				<g>
					<polyline style="fill:none;stroke:#EA1D5B;stroke-miterlimit:10;" points="82.84,3.495 62.71,3.495 62.71,151.733 
						82.84,151.733 					"/>
					<g>
						<path style="fill:#E9215C;" d="M84.671,151.733c0,1.008-0.82,1.828-1.831,1.828c-1.01,0-1.83-0.82-1.83-1.828
							c0-1.014,0.82-1.832,1.83-1.832C83.851,149.901,84.671,150.72,84.671,151.733z"/>
						<path style="fill:none;stroke:#EA1D5B;stroke-width:0.236;stroke-miterlimit:10;" d="M85.815,151.733
							c0,1.643-1.331,2.973-2.975,2.973c-1.643,0-2.974-1.33-2.974-2.973c0-1.645,1.331-2.977,2.974-2.977
							C84.484,148.757,85.815,150.089,85.815,151.733z"/>
					</g>
					<g>
						<circle style="fill:#E9215C;" cx="82.841" cy="3.495" r="1.831"/>
						<circle style="fill:none;stroke:#EA1D5B;stroke-width:0.236;stroke-miterlimit:10;" cx="82.841" cy="3.495" r="2.974"/>
					</g>
				</g>
				<g>
					<line style="fill:none;stroke:#EA1D5B;stroke-miterlimit:10;" x1="72.776" y1="10.813" x2="65.76" y2="10.813"/>
					<line style="fill:none;stroke:#EA1D5B;stroke-miterlimit:10;" x1="72.776" y1="19.164" x2="65.76" y2="19.164"/>
					<line style="fill:none;stroke:#EA1D5B;stroke-miterlimit:10;" x1="72.776" y1="27.514" x2="65.76" y2="27.514"/>
					<line style="fill:none;stroke:#EA1D5B;stroke-miterlimit:10;" x1="72.776" y1="35.863" x2="65.76" y2="35.863"/>
					<line style="fill:none;stroke:#EA1D5B;stroke-miterlimit:10;" x1="72.776" y1="44.214" x2="65.76" y2="44.214"/>
					<line style="fill:none;stroke:#EA1D5B;stroke-miterlimit:10;" x1="72.776" y1="52.564" x2="65.76" y2="52.564"/>
					<line style="fill:none;stroke:#EA1D5B;stroke-miterlimit:10;" x1="72.776" y1="60.914" x2="65.76" y2="60.914"/>
					<line style="fill:none;stroke:#EA1D5B;stroke-miterlimit:10;" x1="72.776" y1="69.264" x2="65.76" y2="69.264"/>
					<line style="fill:none;stroke:#EA1D5B;stroke-miterlimit:10;" x1="72.776" y1="77.614" x2="65.76" y2="77.614"/>
					<line style="fill:none;stroke:#EA1D5B;stroke-miterlimit:10;" x1="72.776" y1="85.965" x2="65.76" y2="85.965"/>
					<line style="fill:none;stroke:#EA1D5B;stroke-miterlimit:10;" x1="72.776" y1="94.314" x2="65.76" y2="94.314"/>
					<line style="fill:none;stroke:#EA1D5B;stroke-miterlimit:10;" x1="72.776" y1="102.664" x2="65.76" y2="102.664"/>
					<line style="fill:none;stroke:#EA1D5B;stroke-miterlimit:10;" x1="72.776" y1="111.015" x2="65.76" y2="111.015"/>
					<line style="fill:none;stroke:#EA1D5B;stroke-miterlimit:10;" x1="72.776" y1="119.365" x2="65.76" y2="119.365"/>
					<line style="fill:none;stroke:#EA1D5B;stroke-miterlimit:10;" x1="72.776" y1="127.715" x2="65.76" y2="127.715"/>
					<line style="fill:none;stroke:#EA1D5B;stroke-miterlimit:10;" x1="72.776" y1="136.064" x2="65.76" y2="136.064"/>
					<line style="fill:none;stroke:#EA1D5B;stroke-miterlimit:10;" x1="65.76" y1="144.415" x2="72.776" y2="144.415"/>
				</g>
			</g>
		</g>
		<g>
			<text transform="matrix(1.0457 0 0 1 0.0811 197.2275)" style="fill:#EA1D5B; font-family:'Dekar'; font-size:30;">CD3hr2</text>
		</g>
		<g>
			<text transform="matrix(1.0457 0 0 1 0.0815 21.54)"><tspan x="0" y="0" style="fill:#E9215C; font-family:'Dekar'; font-size:16.9551;">ALTO</tspan><tspan x="0" y="64" style="fill:#E9215C; font-family:'Dekar'; font-size:16.9551;">MEDIO</tspan><tspan x="0" y="128" style="fill:#E9215C; font-family:'Dekar'; font-size:16.9551;">BAJO</tspan></text>
		</g>
	</g>
</g>
</svg>
